<svg width="59" height="88" viewBox="0 0 59 88" fill="none" xmlns="http://www.w3.org/2000/svg">
<path fill-rule="evenodd" clip-rule="evenodd" d="M27.7415 15.9596C26.6981 15.0011 25.9197 13.7649 25.8424 12.2822C25.6195 8.01004 31.6301 8.21787 33.0395 10.2148C34.4489 12.2118 34.9785 17.6513 33.5431 18.2154C32.9707 18.4403 31.6655 18.2217 30.289 17.6065L31.7923 23.1992L27.0421 23.7824L27.7415 15.9596Z" fill="#915B3C"/>
<path fill-rule="evenodd" clip-rule="evenodd" d="M30.0296 8.08338C29.3909 8.05758 27.6966 8.19397 27.3857 8.23219C27.187 8.25658 26.9773 8.3284 26.8373 8.16043C26.7226 8.02289 26.7268 7.76592 26.6768 7.59611C26.6187 7.39884 26.5469 7.20589 26.4745 7.01351C26.2687 6.46608 25.9964 5.95467 25.6457 5.48619C24.9876 4.60727 24.1027 3.96417 23.0475 3.6563C21.8822 3.31637 20.6163 3.36121 19.4375 3.60391C18.1761 3.86361 17.0744 4.42583 15.92 4.96934C14.8199 5.48727 13.6375 5.78316 12.4159 5.74619C11.1851 5.70896 10.192 5.1663 9.09672 4.66998C7.97551 4.16187 6.73235 3.89214 5.51097 4.1392C4.37085 4.36985 3.3683 4.9754 2.49443 5.72718C1.67682 6.43057 1.02975 7.2355 0.738401 8.29232C0.424962 9.42916 0.571203 10.6168 1.42253 11.483C2.65649 12.7385 4.67535 12.8544 6.31397 12.6171C7.26178 12.4798 8.17382 12.1918 9.0323 11.766C10.1772 11.1982 11.1236 10.3579 12.172 9.64171C12.664 9.30561 13.1796 9.01588 13.729 8.78532C14.2622 8.56152 14.7975 8.42318 15.3385 8.69543C15.9109 8.98345 16.4275 9.27198 17.0598 9.41863C17.6664 9.55933 18.296 9.60239 18.914 9.52166C20.1163 9.36459 21.2567 8.84393 22.3947 8.44924C23.3228 8.12741 24.3176 7.79808 25.3135 7.87562C25.7291 7.90799 26.3423 8.00487 26.5405 8.40831C24.1303 9.15774 23.5365 12.3252 24.5062 14.4778C25.0296 15.6396 27.4575 16.7748 28.2561 16.0322C28.7621 15.5617 28.3601 15.075 28.0991 14.7531C27.5992 14.1367 27.351 13.2966 28.0671 12.7368C28.6848 12.254 29.503 13.12 29.5161 13.1173C29.6976 13.0804 31.1716 11.9901 32.1024 10.5489C33.1868 10.4806 33.2629 9.75065 32.9346 9.20168C32.6063 8.65271 30.912 8.11911 30.0296 8.08338Z" fill="#191847"/>
<path fill-rule="evenodd" clip-rule="evenodd" d="M28.668 40.0862L35.9725 65.2571L39.4082 84.1559H42.8567L39.4144 40.0862H28.668Z" fill="#784931"/>
<path fill-rule="evenodd" clip-rule="evenodd" d="M25.3854 40.0862C25.895 53.1624 25.694 60.2945 25.58 61.4825C25.4659 62.6705 24.8183 70.6271 20.4053 84.5547H23.9919C29.8362 71.1936 31.8764 63.237 32.5467 61.4825C33.217 59.728 35.1967 52.5959 38.0869 40.0862H25.3854Z" fill="#915B3C"/>
<path fill-rule="evenodd" clip-rule="evenodd" d="M28.5112 40.0862C30.4113 48.7476 33.6975 62.5734 38.37 81.5636H43.4137C43.7862 62.0719 42.2014 49.2432 39.4571 40.0862H28.5112Z" fill="#69A1AC"/>
<path fill-rule="evenodd" clip-rule="evenodd" d="M25.3598 40.0862C25.859 53.1624 24.5653 66.0449 20.5581 81.7671H25.9395C31.7945 68.6054 35.991 55.7865 38.859 40.0862H25.3598Z" fill="#C5CFD6"/>
<path fill-rule="evenodd" clip-rule="evenodd" d="M19.894 87.147L20.0919 83.9564C21.2506 84.2953 22.7019 84.1624 24.4457 83.5576C26.3208 84.8858 28.6812 85.7927 31.5271 86.2784C31.7442 86.3155 31.8902 86.5215 31.8531 86.7386C31.8507 86.7527 31.8476 86.7666 31.8437 86.7803L31.5701 87.7452H24.4457H20.2898L19.894 87.147Z" fill="#191847"/>
<path fill-rule="evenodd" clip-rule="evenodd" d="M38.6387 87.147L38.8366 83.9564C39.9952 84.2953 41.4465 84.1624 43.1904 83.5576C45.0654 84.8858 47.4259 85.7927 50.2717 86.2784C50.4889 86.3155 50.6348 86.5215 50.5978 86.7386C50.5954 86.7527 50.5922 86.7666 50.5883 86.7803L50.3147 87.7452H43.1904H39.0345L38.6387 87.147Z" fill="#191847"/>
<path fill-rule="evenodd" clip-rule="evenodd" d="M45.1363 35.5592L52.2116 39.0546C53.9914 39.2134 55.5114 39.5335 56.7716 40.0149C57.0842 40.2127 57.4972 40.6522 56.3654 40.7633C55.2335 40.8743 54.048 41.042 53.961 41.4501C53.8741 41.8581 54.6302 42.1945 54.4094 42.7633C54.2621 43.1425 53.1296 42.4564 51.0119 40.705L44.3551 39.2264L45.1363 35.5592ZM21.1128 39.9588L25.2195 39.2513C24.128 47.8781 23.5253 52.4596 23.4116 52.9957C23.1558 54.202 24.4198 55.7475 24.9935 56.5967C23.7599 57.4322 23.5112 55.1875 21.9603 56.2715C20.5447 57.2609 19.6008 58.7677 17.6253 57.9825C17.3824 57.8859 17.0526 57.4194 17.5625 56.9194C18.8327 55.6739 20.6091 53.5727 20.7898 52.9523C21.0363 52.1063 21.1439 47.7752 21.1128 39.9588Z" fill="#915B3C"/>
<path fill-rule="evenodd" clip-rule="evenodd" d="M29.7385 20.6825L31.3853 20.0918C38.6455 24.4236 43.0771 34.4235 51.7767 38.6009L50.3242 41.2327C36.6338 41.9363 31.0641 29.7677 29.7385 20.6825Z" fill="#1F28CF"/>
<path fill-rule="evenodd" clip-rule="evenodd" d="M26.0989 43.3279C32.9077 42.1273 37.9162 41.2441 41.1243 40.6785C41.8108 40.5574 41.5067 39.5888 41.3192 39.1061C39.1557 33.5343 33.5868 28.099 32.1376 19.8803L27.6838 19.9649C25.1156 26.3624 25.1275 33.6795 26.0989 43.3279Z" fill="#DDE3E9"/>
<path fill-rule="evenodd" clip-rule="evenodd" d="M23.2716 26.5863C22.6102 26.5163 22.0373 26.1822 21.5529 25.5839C19.4648 23.0049 19.7594 21.3303 21.3611 20.5145C22.9628 19.6987 24.6604 20.498 27.3576 20.0224C27.5043 19.9966 27.6403 19.9821 27.7656 19.979L29.136 19.8171C35.355 32.3237 37.9807 40.9365 37.0129 45.6556L25.1868 47.7409C24.7742 49.4983 24.3461 50.9912 23.9025 52.2196L20.6801 52.7878C18.6477 43.0354 19.5116 34.3016 23.2716 26.5863Z" fill="#2B44FF"/>
<path fill-rule="evenodd" clip-rule="evenodd" d="M26.5669 40.5113C27.4876 43.5576 28.4903 45.7095 29.5752 46.9671L25.1864 47.7409C25.6677 45.691 26.1279 43.2811 26.5669 40.5113L26.5669 40.5113Z" fill="black" fill-opacity="0.1"/>
</svg>
