<svg width="54" height="85" viewBox="0 0 54 85" fill="none" xmlns="http://www.w3.org/2000/svg">
<path fill-rule="evenodd" clip-rule="evenodd" d="M27.0069 7.75726C26.0268 6.60681 25.3634 5.19692 25.4743 3.61709C25.7937 -0.934837 32.1301 0.0665281 33.3627 2.36395C34.5952 4.66137 34.4488 10.489 32.8558 10.8996C32.2205 11.0633 30.8672 10.6622 29.4898 9.832L30.3544 15.9484H25.2495L27.0069 7.75726Z" fill="#57331F"/>
<path fill-rule="evenodd" clip-rule="evenodd" d="M29.7452 4.11983C29.9406 6.84182 30.4575 8.20281 31.2959 8.20281C32.5536 8.20281 33.6206 7.40441 34.1725 7.40441C34.5747 7.40441 34.4849 7.9078 34.2183 8.28104C33.9983 8.58897 32.927 8.88578 32.927 9.36318C32.927 9.84058 33.7734 9.47124 33.7734 9.75438C33.7734 10.2227 33.9222 11.1033 33.1093 11.1033C32.2867 11.1033 29.928 10.8035 29.5238 9.58257C29.263 8.79461 29.0943 7.16182 29.0178 4.6842C28.9679 4.67827 28.9171 4.67521 28.8656 4.67521C28.1608 4.67521 27.5894 5.24659 27.5894 5.95143C27.5894 6.30924 27.7367 6.63266 27.9739 6.86439C27.6786 7.2812 27.3477 7.71662 26.9684 8.16591C25.5438 7.31116 24.4866 4.809 25.8794 2.40532C26.2644 1.22779 27.136 0.598831 28.1653 0.306784C28.9991 -0.0420025 29.8647 -0.0813285 30.5954 0.127766C32.0277 0.250621 33.3067 0.687373 33.6691 0.946749C33.6691 2.30277 33.4064 2.7051 31.1621 2.66964C30.6107 2.96086 30.1868 3.46236 29.7452 4.11983Z" fill="#191847"/>
<path fill-rule="evenodd" clip-rule="evenodd" d="M24.8394 33.55L35.2791 59.9734L42.2811 82.3121H45.0461L34.3415 33.55L24.8394 33.55Z" fill="#3D2216"/>
<path fill-rule="evenodd" clip-rule="evenodd" d="M22.7383 33.55C22.6272 42.8354 21.0059 55.3366 20.7469 55.9154C20.5742 56.3013 14.613 61.2082 2.86328 70.6363L4.76765 72.6742C18.6312 64.5908 25.8838 60.01 26.5253 58.9319C27.4876 57.3147 30.6206 42.4332 33.1359 33.55H22.7383Z" fill="#57331F"/>
<path fill-rule="evenodd" clip-rule="evenodd" d="M2.60808 69.9559C1.96851 70.1819 1.52793 70.3963 1.28634 70.599C0.992515 70.8455 0.604823 71.2543 0.123265 71.8252C0.40928 72.166 2.97974 75.2294 7.83465 81.0152C8.82456 80.5916 9.13512 80.096 8.76633 79.5287C8.39753 78.9613 8.09571 78.4862 7.86087 78.1033L6.18093 72.234C6.14861 72.1211 6.03085 72.0557 5.91791 72.088C5.91598 72.0886 5.91405 72.0892 5.91214 72.0898L5.01572 72.3741C4.3938 72.0842 3.95789 71.7904 3.708 71.4926C3.50498 71.2507 3.32232 70.8345 3.16002 70.2442L3.16002 70.2442C3.09774 70.0177 2.8636 69.8845 2.63706 69.9468C2.6273 69.9495 2.61763 69.9525 2.60808 69.9559Z" fill="#E4E4E4"/>
<path fill-rule="evenodd" clip-rule="evenodd" d="M41.1489 81.2808C40.911 81.9161 40.792 82.3914 40.792 82.7067C40.792 83.0903 40.8559 83.65 40.9837 84.3859C41.4286 84.3859 45.4276 84.3859 52.9805 84.3859C53.2922 83.3552 53.1123 82.7988 52.4406 82.7166C51.7689 82.6345 51.2109 82.5603 50.7667 82.494L45.1907 80.0082C45.0834 79.9604 44.9576 80.0086 44.9098 80.1159C44.909 80.1177 44.9082 80.1196 44.9074 80.1214L44.549 80.9909C43.9272 81.281 43.4219 81.426 43.0332 81.426C42.7173 81.426 42.2811 81.2985 41.7246 81.0434L41.7246 81.0434C41.511 80.9455 41.2585 81.0392 41.1606 81.2528C41.1564 81.262 41.1525 81.2714 41.1489 81.2808Z" fill="#E4E4E4"/>
<path fill-rule="evenodd" clip-rule="evenodd" d="M31.8594 80.0112L45.0053 78.5845L35.2626 33.55H23.4883L31.8594 80.0112Z" fill="#69A1AC"/>
<path fill-rule="evenodd" clip-rule="evenodd" d="M5.58203 67.3485L14.205 77.5551C23.2874 67.6356 28.5824 61.163 30.0901 58.1376C31.5978 55.1121 32.9532 46.9162 34.1562 33.55H20.9004C20.2433 45.309 19.8003 51.4621 19.5716 52.0093C19.3428 52.5565 14.6796 57.6696 5.58203 67.3485Z" fill="#89C5CC"/>
<path fill-rule="evenodd" clip-rule="evenodd" d="M43.4446 30.9123L49.47 36.7904C51.2232 37.5382 52.6597 38.3639 53.7794 39.2676C54.0313 39.5714 54.3054 40.1534 53.1206 39.8929C51.9358 39.6325 50.6778 39.4118 50.4552 39.7971C50.2325 40.1824 50.8886 40.7729 50.4771 41.2771C50.2027 41.6133 49.28 40.544 47.709 38.0692L41.4434 34.3751L43.4446 30.9123ZM13.9804 25.5925L18.638 25.61C15.0906 37.1031 13.2076 43.1207 12.9888 43.6628C12.4966 44.8826 13.5382 46.7402 13.9836 47.7385C12.5329 48.3876 12.6875 45.9837 10.8575 46.835C9.18726 47.6121 7.91668 49.0201 5.98691 47.8294C5.74965 47.683 5.48966 47.1318 6.11783 46.7011C7.68284 45.628 9.93812 43.7498 10.2428 43.1316C10.6584 42.2886 11.9042 36.4422 13.9804 25.5925Z" fill="#57331F"/>
<path fill-rule="evenodd" clip-rule="evenodd" d="M28.1735 12.3798L30.0127 12.0643C32.9101 22.3063 47.7969 29.2876 48.7107 33.1164C49.0459 34.5204 48.0354 35.2302 48.5574 35.6579L46.1667 37.408C45.7618 36.9356 44.8979 37.7997 43.0937 37.1953C41.2896 36.5909 28.1735 24.5071 28.1735 12.3798Z" fill="#191847"/>
<path fill-rule="evenodd" clip-rule="evenodd" d="M31.2671 13.7415C31.055 27.3012 38.8935 30.76 37.1476 36.1996C35.7058 40.6915 21.9053 45.5203 19.5173 41.1172C18.5506 39.3348 18.112 37.1792 18.0623 34.8356C17.4519 36.6361 16.9692 38.1862 16.6141 39.4857C16.0016 41.7276 13.6268 42.0839 13.6268 42.9476L10.498 42.0839C10.7102 40.9106 9.23523 40.3393 9.63071 37.718C11.4027 25.9732 16.1637 17.4597 23.9137 12.1776L23.9939 11.031C24.0267 10.5623 24.4332 10.2088 24.902 10.2416L30.6309 10.6422C31.0997 10.675 31.4531 11.0816 31.4203 11.5503L31.2671 13.7415Z" fill="#2F3676"/>
</svg>
